<svg
    xmlns="http://www.w3.org/2000/svg"
    viewBox="0 0 1771 2401.58"
>
    <title>css</title>
    <path
        d="M1387.8,94.5H1240.9l152.8,165.9v78.9H1078.9V246.9h152.8L1078.9,81V2h309Zm-371.4,0H869.3l153,165.9v78.9H707.4V246.9H860.2L707.4,81V2h309ZM648.6,98.3H490.1V243.1H648.6v96.3H377.3V2H648.6Z"
        transform="translate(0 -2)"
    />
    <path
        d="M0,395.18l161.2,1807.7,723.2,200.7,725.2-201L1771,395.18Zm1436.2,413.6-54.5,611h-.08L1343.9,1841l-3.3,37.5-453.4,125.7v.5h-1.3l-454.2-126.4-31.1-348.1H623L638.8,1707l246.9,66.7h.4v-.2l247.3-66.7,25.83-287H885.5v-.2H641.4l-4.3-49.8L627,1257.38l-5.3-59.5h557.2l20.2-227H886.3v.1H350.9l-4.6-49.8-10.1-112.4-5.3-59.5H1441.5Z"
        transform="translate(0 -2)"
    />
</svg>