<?xml version="1.0" encoding="utf-8"?>
<!-- Generator: Adobe Illustrator 22.0.0, SVG Export Plug-In . SVG Version: 6.00 Build 0)  -->
<svg version="1.1" id="Layer_2_1_" xmlns="http://www.w3.org/2000/svg" xmlns:xlink="http://www.w3.org/1999/xlink" x="0px" y="0px"
	 viewBox="0 0 24 24" style="enable-background:new 0 0 24 24;" xml:space="preserve">
<style type="text/css">
	.st0{fill:#113040;}
</style>
<path class="st0" d="M17.3,7.1C17.2,7.1,17.1,7,16.9,7c-0.5,0-0.8,0.4-0.8,0.8c0,0.5,0.4,0.8,0.8,0.8c0.5,0,0.8-0.4,0.8-0.8
	C17.7,7.5,17.6,7.3,17.3,7.1 M14.7,5.9c1,0,2,0.4,2.6,1.1h2.5c2.3,0,4.1,1.8,4.1,4.1c0,2.3-1.8,4.1-4.1,4.1l-5.1,0l-0.1,0.2
	c0,1.9-0.6,2.6-2.6,2.6s-2.6-0.6-2.6-2.6v-0.2H6.5l0,0.2c0,1.9-0.6,2.6-2.6,2.6s-2.6-0.6-2.6-2.6V15c0-0.3,0-0.5,0-0.7
	c-0.8-0.8-1.3-1.8-1.3-3c0-1.9,1.2-3.4,3-3.9C3.3,7.2,3.7,7.1,4,7.1l8,0c0-0.1,0-0.2,0-0.2C12,6.4,12.4,6,12.8,6
	c0.2,0,0.4,0.1,0.5,0.2C13.8,6,14.2,5.9,14.7,5.9"/>
</svg>
