<?xml version="1.0" encoding="utf-8"?>
<!-- Generator: Adobe Illustrator 22.0.0, SVG Export Plug-In . SVG Version: 6.00 Build 0)  -->
<svg version="1.1" id="Layer_1" xmlns="http://www.w3.org/2000/svg" xmlns:xlink="http://www.w3.org/1999/xlink" x="0px" y="0px"
	 viewBox="0 0 23.8 23.8" style="enable-background:new 0 0 23.8 23.8;" xml:space="preserve">
<style type="text/css">
	.st0{fill:#A5037A;}
</style>
<path class="st0" d="M0,0v23.8h23.8V0H0z M12.9,18.5c0,2.3-1.4,3.4-3.3,3.4c-1.8,0-2.8-0.9-3.3-2l1.8-1.1c0.4,0.6,0.7,1.1,1.4,1.1
	c0.7,0,1.2-0.3,1.2-1.4v-7.6h2.2V18.5z M18.2,21.9c-2.1,0-3.4-1-4.1-2.3l1.8-1.1c0.5,0.8,1.1,1.4,2.2,1.4c0.9,0,1.5-0.5,1.5-1.1
	c0-0.8-0.6-1-1.6-1.5l-0.6-0.2c-1.6-0.7-2.7-1.5-2.7-3.4c0-1.7,1.3-2.9,3.3-2.9c1.4,0,2.4,0.5,3.2,1.8l-1.7,1.1
	c-0.4-0.7-0.8-1-1.4-1c-0.7,0-1.1,0.4-1.1,1c0,0.7,0.4,0.9,1.4,1.4l0.6,0.2c1.9,0.8,3,1.6,3,3.5C21.9,20.8,20.3,21.9,18.2,21.9z"/>
</svg>
