<svg id="Layer_1" data-name="Layer 1" xmlns="http://www.w3.org/2000/svg" viewBox="0 0 1311.68 693.92"><title>mongodb</title><path d="M1240.48,408.38c-1.34-.45-1.34-1.35,0-1.8,26.59-11.26,46.86-34.25,46.86-63.08,0-58.58-54.07-72.55-93.27-72.55-32,0-58.12.9-91,.9-34.7,0-48.21-1.35-52.71-1.35h0c-2.71,1.8-10.37,17.12-8.12,19.38,10.37,1.35,23,3.15,30.65,4.5,9.91,2.71,14.86,7.22,15.31,21.18.46,18,0,55,0,109.49,0,39.65,0,95.53-.9,111.3-1.8,18.48-3.15,22.08-15.32,25.23-8.56,2.71-14.87,3.16-23,3.61-3.15,2.7-9.91,18.92-6.3,20.28,34.24-.9,96,1.8,119,1.8,30.19,0,59.93-3.61,83.81-14,39.2-17.12,66.24-44.61,66.24-87.87C1311.68,441.28,1278.33,417.85,1240.48,408.38Zm-102.73-105c0-2.7,2.25-7.66,4.5-8.11h0a72.35,72.35,0,0,1,18.93-.9c45.51,0,76.15,16.68,76.15,60.38,0,19.38-7.66,36.95-23.88,45.07-6.31,2.7-17.58,5.4-37,5.4-14,0-30.19-.45-37-.9-1.35,0-2.7-1.8-2.7-2.71C1136.85,369.18,1137.3,321.42,1137.75,303.39ZM1258.51,496.7c0,46.41-31.09,66.24-66.69,66.24-12.62,0-31.09-.9-39.2-5.41-7.66-3.6-14-15.77-14.87-24.33-1.35-19.82-.9-70.75-.9-102.74,0-1.35,1.8-2.25,3.15-2.71,4.51-.89,23.43-.44,26.14-.44,59.48,0,92.37,24.78,92.37,69.39Z" transform="translate(0 -1.05)"/><path d="M1001.34,305.65c-27-23-64.89-35.15-110-35.15-53.62,0-73.89,1.35-102.28,1.35-15.78,0-48.67-1.35-57.23-1.35h0c-2.25,2.7-10.36,16.67-8.55,19.83,12.61,1.35,21.62,3.15,28.38,4.5,13.52,2.71,20.28,6.76,21.62,22.53.91,18.93.46,78,.46,108.14,0,42.36.45,79.76-.9,110.85-1.35,16.67-3.16,21.63-12.62,25.24-5.86,2.24-9,2.7-20.73,4-3.6.45-9.46,16.22-7.21,20.27h.45c43.71.46,96.43,1.36,127.07,1.36,57.68,0,98.24-13.52,129.32-36.5,31.09-22.53,62.19-61.73,62.19-129.77C1051.36,373.24,1034.23,334,1001.34,305.65Zm-44.16,231.6c-23.43,21.18-47.76,25.68-72.09,25.68-18.93,0-40.1-3.6-50.93-12.16h0c-6.76-4.5-9.91-14.87-9.91-21.63-.91-6.76-.91-65.34-.91-107.24,0-40.56,0-109.95.91-119,0-2.25,3.15-6.3,4.5-7.21,5.86-2.7,15.32-3.15,25.23-3.15,33.35,0,62.19,5.85,84.72,19.83,39.65,24.32,59,65.78,59,116.7C997.73,482.28,981.06,515.63,957.18,537.25Z" transform="translate(0 -1.05)"/><path d="M334.55,586.82c-.9-1.35-1.8-5.41-1.35-10.36a15.24,15.24,0,0,1,1.35-6.76,166.21,166.21,0,0,0,19.83-4.06c9-2.26,12.61-7.21,13.06-18.47,1.36-27,1.36-78.41.91-114v-.91c0-4.05,0-9-5-12.62a101.67,101.67,0,0,0-27-11.71c-4.05-1.35-6.75-3.6-6.3-6.3,0-2.71,2.7-5.86,8.56-6.77,14.87-1.35,53.61-10.81,68.94-17.57.9.9,2.25,3.61,2.25,7.21l-.45,4.95c-.45,5-.9,10.82-.9,16.68a3.48,3.48,0,0,0,3.6,3.15,6.39,6.39,0,0,0,2.71-.9c28.84-22.53,55-30.64,68.48-30.64,22.09,0,39.21,10.37,52.28,32a3.39,3.39,0,0,0,3.15,1.81,3.21,3.21,0,0,0,2.7-1.35c26.59-20.28,53.18-32.45,70.75-32.45,41.9,0,66.69,31.09,66.69,83.81,0,14.87,0,34.25-.45,51.83,0,15.76-.45,30.18-.45,40.55,0,2.24,3.15,9.45,8.1,10.81,6.31,3.15,14.88,4.5,26.14,6.31h.45c.9,3.15-.9,14.86-2.7,17.12a110.67,110.67,0,0,1-11.27-.45q-17.1-.88-34.24-.9c-27.94,0-42.36.45-56.33,1.35-.89-3.6-1.35-14.42,0-17.12A139.92,139.92,0,0,0,625.19,567c9-2.7,11.26-6.76,11.72-18.47,0-8.56,1.79-81.56-.91-99.13-2.7-18-16.22-39.2-46-39.2-11.27,0-28.84,4.5-46,17.56a8.07,8.07,0,0,0-1.81,4.51v.46c1.81,9.45,1.81,20.27,1.81,36.94V499c0,20.28-.46,39.21,0,53.62,0,9.92,5.86,12.17,10.81,14,2.71.45,4.51.9,6.76,1.35,4.06.9,8.11,1.81,14.42,3.16.9,1.8.9,7.66-.45,12.61a8.68,8.68,0,0,1-1.8,4.51c-15.32-.45-31.09-.9-54.07-.9-6.76,0-18.48.45-28.39.45-8.12,0-15.77.45-20.27.45-.46-.9-1.36-4-1.36-9,0-4.06.9-7.21,1.81-8.11a30.39,30.39,0,0,1,6.3-.9c5.4-.91,9.92-1.81,14.42-2.71,7.66-2.25,10.36-6.31,10.81-16.22,1.36-22.53,2.71-87-.45-103.19-5.4-26.13-20.27-39.2-44.16-39.2-14,0-31.54,6.76-45.95,17.58-2.26,1.8-4.06,6.3-4.06,10.36v26.59c0,32.44,0,73,.45,90.57.45,5.4,2.25,11.71,12.62,14a94.87,94.87,0,0,0,10.36,1.81l8.11,1.35c.91,2.7.45,13.52-1.35,17.12-4.51,0-9.91-.45-16.23-.45-9.45-.45-21.62-.9-35.14-.9-15.77,0-27,.45-36,.9a109.23,109.23,0,0,0-16.67-.9Z" transform="translate(0 -1.05)"/><path d="M305,276.35C268.49,115.5,182.43,62.78,173,42.5,162.6,28.08,152.69,2.85,152.69,2.85V4a16,16,0,0,0-.91-2.92c-.91,14.41-1.36,19.83-14.88,34.24C116.19,51.51,9,141.18.39,323.67-8,493.81,123.41,595.4,141.23,608.38c12.67,29.68,11.46,80.27,11.46,80.27L171.16,695s-3.61-49.56,1.8-73a44.66,44.66,0,0,1,9.54-19A232.68,232.68,0,0,0,205,584.57l.87-.46,0-.31C249.58,543.47,333.36,442.19,305,276.35Z" transform="translate(0 -1.05)"/></svg>