<?xml version="1.0" encoding="utf-8"?>
<!-- Generator: Adobe Illustrator 22.0.0, SVG Export Plug-In . SVG Version: 6.00 Build 0)  -->
<svg version="1.1" id="Layer_2_1_" xmlns="http://www.w3.org/2000/svg" xmlns:xlink="http://www.w3.org/1999/xlink" x="0px" y="0px"
	 viewBox="0 0 24 24" style="enable-background:new 0 0 24 24;" xml:space="preserve">
<style type="text/css">
	.st0{fill:#A5037A;}
</style>
<g>
	<path class="st0" d="M24,12.2c0-1.6-2-3.1-5-4c0.7-3.1,0.4-5.6-1-6.4c-0.3-0.2-0.7-0.3-1.1-0.3v0c-1.3,0-3.1,1-4.9,2.6
		c-1.8-1.7-3.5-2.6-4.9-2.6v0C6.7,1.5,6.3,1.6,6,1.8C4.6,2.6,4.3,5.1,5,8.2c-3,0.9-5,2.4-5,4c0,1.6,2,3.1,5,4
		c-0.7,3.1-0.4,5.6,1,6.4c0.3,0.2,0.7,0.3,1.1,0.3c1.3,0,3.1-1,4.9-2.6c1.8,1.7,3.5,2.6,4.9,2.6c0.4,0,0.8-0.1,1.1-0.3
		c1.4-0.8,1.7-3.3,1-6.4C22,15.3,24,13.8,24,12.2z M16.9,2.6L16.9,2.6c0.2,0,0.4,0,0.6,0.1c0.7,0.4,1,1.8,0.7,3.7
		c-0.1,0.5-0.1,0.9-0.2,1.4c-1-0.2-2-0.4-3.1-0.5c-0.7-0.9-1.3-1.7-2-2.4C14.4,3.4,15.9,2.6,16.9,2.6z M7.7,14.7
		c0.2,0.4,0.5,0.8,0.7,1.1c-0.7-0.1-1.4-0.2-2-0.4c0.2-0.6,0.4-1.3,0.7-1.9C7.2,13.9,7.4,14.3,7.7,14.7z M6.3,8.9
		c0.6-0.2,1.3-0.3,2-0.4C8.1,8.9,7.9,9.3,7.7,9.7c-0.2,0.4-0.4,0.8-0.6,1.2C6.8,10.2,6.5,9.6,6.3,8.9z M7.6,12.2
		c0.3-0.7,0.6-1.3,1-2C9,9.6,9.4,9,9.8,8.4c0.7-0.1,1.5-0.1,2.2-0.1c0.7,0,1.5,0,2.2,0.1c0.4,0.6,0.8,1.2,1.2,1.9
		c0.4,0.6,0.7,1.3,1,1.9c-0.3,0.7-0.6,1.3-1,2c-0.4,0.7-0.8,1.3-1.2,1.9c-0.7,0.1-1.5,0.1-2.2,0.1c-0.7,0-1.5,0-2.2-0.1
		c-0.4-0.6-0.8-1.2-1.2-1.9C8.2,13.5,7.9,12.9,7.6,12.2z M16.3,14.7c0.2-0.4,0.4-0.8,0.6-1.2c0.3,0.7,0.5,1.3,0.7,1.9
		c-0.6,0.2-1.3,0.3-2,0.4C15.9,15.5,16.1,15.1,16.3,14.7z M16.3,9.7c-0.2-0.4-0.5-0.8-0.7-1.1c0.7,0.1,1.4,0.2,2,0.4
		c-0.2,0.6-0.4,1.3-0.7,1.9C16.8,10.5,16.6,10.1,16.3,9.7z M13.3,7.2c-0.4,0-0.9,0-1.3,0c-0.5,0-0.9,0-1.4,0
		c0.4-0.6,0.9-1.1,1.3-1.6C12.4,6.1,12.9,6.7,13.3,7.2z M6.5,2.8c0.1-0.1,0.3-0.1,0.6-0.1v0c1,0,2.5,0.8,4.1,2.3
		c-0.7,0.7-1.4,1.5-2,2.4C8.1,7.5,7,7.6,6.1,7.9C6,7.4,5.9,6.9,5.8,6.5C5.6,4.6,5.9,3.1,6.5,2.8z M5.3,15.2
		c-0.5-0.2-0.9-0.3-1.4-0.5c-1.7-0.7-2.9-1.7-2.9-2.5c0-0.8,1.1-1.7,2.9-2.5c0.4-0.2,0.9-0.3,1.4-0.5c0.3,1,0.6,2,1.1,3
		C5.9,13.2,5.6,14.2,5.3,15.2z M7.1,21.8c-0.2,0-0.4,0-0.6-0.1c-0.7-0.4-1-1.8-0.7-3.7C5.9,17.5,6,17,6.1,16.5c1,0.2,2,0.4,3.1,0.5
		c0.7,0.9,1.3,1.7,2,2.4C9.6,21,8.1,21.8,7.1,21.8z M12,18.7c-0.5-0.5-0.9-1-1.4-1.6c0.4,0,0.9,0,1.3,0c0.5,0,0.9,0,1.4,0
		C12.9,17.7,12.5,18.3,12,18.7z M17.5,21.7c-0.1,0.1-0.3,0.1-0.6,0.1c-1,0-2.5-0.8-4.1-2.3c0.7-0.7,1.4-1.5,2-2.4
		c1.1-0.1,2.2-0.3,3.1-0.5c0.1,0.5,0.2,1,0.3,1.4C18.4,19.8,18.1,21.3,17.5,21.7z M20.1,14.7c-0.4,0.2-0.9,0.3-1.4,0.5
		c-0.3-1-0.6-2-1.1-3c0.5-1,0.8-2,1.1-3c0.5,0.2,0.9,0.3,1.4,0.5c1.7,0.7,2.9,1.7,2.9,2.5C22.9,13,21.8,14,20.1,14.7z"/>
	<path class="st0" d="M12,14.4c1.2,0,2.2-1,2.2-2.2c0-1.2-1-2.2-2.2-2.2c-1.2,0-2.2,1-2.2,2.2C9.8,13.4,10.8,14.4,12,14.4z"/>
</g>
</svg>
