<svg
    id="Layer_1"
    data-name="Layer 1"
    xmlns="http://www.w3.org/2000/svg"
    viewBox="0 0 335.76 427.05"
>
    <title>ruby on rails logo</title>
    <rect
        x="47.96"
        y="357.29"
        width="15.22"
        height="12.51"
    />
    <path
        d="M50.09,1A48.25,48.25,0,0,0,1.84,49.25v378.8H289.36A48.24,48.24,0,0,0,337.6,379.8V1ZM282.48,47l4.37,3.13h0l11.88,8.48-.59,5.61L293,61.07h0l-10.52-6.5Zm-54.15-16h0l1.33.11,3.67,12.17L215.94,43l-5.6-13.34Zm-65.18,7.84,11.4,14.89-14.11,9.1L147.1,48.39Zm-60.93,46L120,98.1,109.38,114,89.85,101.77ZM57,157.08l22.24,9.68-7,20.88-22.83-8.51ZM24.05,270.18l6.29-23.79L56.39,251,50.45,276.3l-27.2-3.1ZM63.48,404,49.94,385.89V404H33.18v-62H66c10.06,0,15.56,9.92,15.56,15.44v10.34c0,12.64-13.66,15.34-13.66,15.34L83.59,404Zm83.94-.27H130.65V391.57H115.82v12.11H99.32v-45.9c0-9.15,8-16.12,15.6-16.12h15.22c9.16,0,17.28,7,17.28,16Zm34.49.2H165.28V341.79h16.63Zm59.47,0H199.9V341.79h16.62v45.45h24.86ZM200.47,218l2.13,14.89-20.89-9.57-.29-15.56ZM186,170.43l4-13.64,13.92,14.12-3.58,12.68ZM214,277.29l6.57,16-24.46-2.13-6.39-18.37Zm-9.68-154.06,7.93-9.37,9.29,14.41L215,137.85Zm36.95-15.86L236.07,94.9,241,93.05h0l6.4-2.4L251,102.16ZM299.41,388.8c0,8.21-8.13,15-17.12,15H252.12V388.12h30.56v-7.54h-15c-8,0-16.64-6.68-16.64-16.25v-6.58c0-7.94,6.87-15.86,16.83-15.86h28.43v15.38H268V364h16.15c7.35,0,15.28,6.56,15.28,16.54ZM280.93,88.33l12.38,2.51-.1,5.52-11.89-.58ZM313.62,95c-.74-.43-1.49-.86-2.23-1.27l0,0C296,85.12,280.19,80.2,264.88,80.18a66.59,66.59,0,0,0-33.54,8.87h0c-14.67,8.35-28.19,22.92-39.66,45-21.63,41.66-25.28,103.15,6.17,184.64H57.54C71.7,109.22,167.21,51.2,225.35,49.68h.1c1.05,0,2.09,0,3.11,0h.2c1.05,0,2.09,0,3.11.09,1.32.06,2.63.14,3.92.23l1.65.12,2.36.2,1.55.15c1.19.12,2.36.24,3.52.38l.17,0c1.38.17,2.73.36,4.07.56l.11,0c15.8,2.39,29,7.06,41.36,14.38h0c1.33.79,2.64,1.61,3.95,2.46l.19.12a154.46,154.46,0,0,1,22.55,18.28S315.17,91.33,313.62,95Z"
        transform="translate(-1.84 -1)"
    />
    <rect
        x="113.98"
        y="357.3"
        width="14.83"
        height="16.63"
    />
</svg>